<svg id="Слой_1" data-name="Слой 1" xmlns="http://www.w3.org/2000/svg" viewBox="0 0 900 605"><defs><style>.cls-1,.cls-12,.cls-3,.cls-7{fill:none;}.cls-1,.cls-12,.cls-7{stroke:#fff;}.cls-1,.cls-12,.cls-3,.cls-4,.cls-5,.cls-7{stroke-miterlimit:10;}.cls-1{stroke-width:5px;}.cls-10,.cls-11,.cls-2,.cls-4,.cls-8{fill:#fff;}.cls-2{fill-opacity:0.64;}.cls-3,.cls-4,.cls-5{stroke:#000;}.cls-12,.cls-3{stroke-width:2px;}.cls-4,.cls-5{stroke-width:3px;}.cls-6,.cls-9{fill:#093222;}.cls-6{opacity:0.5;}.cls-7{stroke-width:15px;}.cls-9{opacity:0.51;}.cls-10{font-size:253.28px;font-family:Perla, Perla;letter-spacing:0.1em;}.cls-11{font-size:80px;font-family:Roboto-Regular, Roboto;letter-spacing:0.3em;}</style></defs><title>logo1</title><path d="M599.5,3.39C764.91,3.39,899,137.48,899,302.89s-134.09,299.5-299.5,299.5"/><path d="M599.5,20.6C755.4,20.6,881.79,147,881.79,302.89S755.4,585.18,599.5,585.18"/><path class="cls-1" d="M599.5,20.6C755.4,20.6,881.79,147,881.79,302.89S755.4,585.18,599.5,585.18"/><path class="cls-1" d="M599.5,20.6C755.4,20.6,881.79,147,881.79,302.89S755.4,585.18,599.5,585.18"/><path class="cls-2" d="M878.28,247.85,601.13,301.78,746.73,59.9a354.31,354.31,0,0,1,131.55,188Z"/><path class="cls-3" d="M599.5,161.74a141.15,141.15,0,0,1,0,282.29"/><path class="cls-4" d="M599.5,236.1a66.79,66.79,0,1,1,0,133.57"/><path class="cls-5" d="M600.87,300.82a3.44,3.44,0,1,1,0,6.89"/><path class="cls-3" d="M599.5,210.8a92.09,92.09,0,1,1,0,184.18"/><path class="cls-3" d="M599.5,87.94c118.71,0,214.95,96.23,214.95,214.95S718.21,517.84,599.5,517.84"/><path class="cls-3" d="M599.5,224.1a78.79,78.79,0,1,1,0,157.58"/><ellipse class="cls-6" cx="607.62" cy="304.19" rx="292.38" ry="300.81"/><rect x="7.19" y="10.39" width="586.77" height="586.77"/><rect class="cls-7" x="7.19" y="10.39" width="586.77" height="586.77"/><rect x="14.69" y="17.89" width="571.77" height="571.77"/><path class="cls-8" d="M579,25.39V582.16H22.19V25.39H579m15-15H7.19V597.16H594V10.39Z"/><rect class="cls-9" x="7.19" y="10.39" width="586.77" height="586.77"/><text class="cls-10" transform="translate(133.72 368.82)">ID</text><text class="cls-11" transform="translate(184.28 490.41)">duet</text><line class="cls-12" x1="133.72" y1="408.36" x2="425.3" y2="408.36"/></svg>