<svg xmlns="http://www.w3.org/2000/svg" viewBox="0 0 200 200"><defs><style>.cls-1{opacity:0.5;}.cls-2{opacity:0.1;}.cls-3,.cls-4{fill:none;stroke-miterlimit:10;stroke-width:7px;}.cls-3{stroke:#bebebe;}.cls-4{stroke:#fff;}.cls-5,.cls-7{fill:#fff;}.cls-6,.cls-7{font-size:91.92px;font-family:Montez-Regular, Montez;}</style></defs><title>logo1</title><circle cx="103" cy="103.19" r="83.87" class="cls-3"/><circle cx="100" cy="100.19" r="83.87" class="cls-4"/><g class="cls-2"><path d="M85 160.63v-.52a3.35 3.35 0 0 1-1.1.4 3.88 3.88 0 0 1-1.33 0 6.06 6.06 0 0 1-2.14-.83 6.36 6.36 0 0 1-1.7-1.56 7.32 7.32 0 0 1-1.13-2.17 8.55 8.55 0 0 1-.4-2.68 6.26 6.26 0 0 1 .4-2.3 4.1 4.1 0 0 1 1.1-1.62 3.82 3.82 0 0 1 1.7-.84 5.7 5.7 0 0 1 2.26 0 7 7 0 0 1 1.23.32 5.2 5.2 0 0 1 1.1.58v-3.3l-1.48-.23q0-1.22 0-2.43 2 .34 4 .6v14.55l1.6.18v2.43q-2.02-.2-4.12-.57zm0-8.74a3.84 3.84 0 0 0-1-.7 5.22 5.22 0 0 0-1.2-.36 2.8 2.8 0 0 0-1.15 0 2.1 2.1 0 0 0-.94.5 2.5 2.5 0 0 0-.63 1 4.06 4.06 0 0 0-.24 1.46 6 6 0 0 0 .23 1.72 4.23 4.23 0 0 0 .63 1.3 3.4 3.4 0 0 0 1 .9 3.47 3.47 0 0 0 1.2.46 2.8 2.8 0 0 0 1.32 0 2.46 2.46 0 0 0 .86-.44zM98.66 161.8v-.72a5.78 5.78 0 0 1-1.47.63 5.33 5.33 0 0 1-1.66.18 4.62 4.62 0 0 1-1.6-.35 3.36 3.36 0 0 1-1.23-.88 4 4 0 0 1-.76-1.4 6.22 6.22 0 0 1-.27-1.94q0-2.4 0-4.8l-1.44-.13V150q1.88.2 3.77.3l.34.1v6.9a2.46 2.46 0 0 0 .5 1.68 1.9 1.9 0 0 0 1.4.6 3.9 3.9 0 0 0 1.18-.16 4.55 4.55 0 0 0 1.18-.5v-6h-1.47v-2.4q1.9.05 3.78 0l.35.05q0 4.43 0 8.85h1.2q0 1.2 0 2.4-1.9 0-3.8-.03zM106.67 156.5a4.05 4.05 0 0 0 .08.6 4.17 4.17 0 0 0 .15.5 2.4 2.4 0 0 0 1.1 1.33 2.92 2.92 0 0 0 1.73.32 5.4 5.4 0 0 0 .78-.13 5.07 5.07 0 0 0 .8-.27 8.2 8.2 0 0 0 .85-.43q.44-.26 1-.62l1.07 1.67a10.82 10.82 0 0 1-2.4 1.57 7.14 7.14 0 0 1-2.3.63 5.26 5.26 0 0 1-2.15-.2 4.08 4.08 0 0 1-1.68-1 5 5 0 0 1-1.1-1.84 7.6 7.6 0 0 1-.4-2.57 7.7 7.7 0 0 1 .32-2.28 5.82 5.82 0 0 1 1-1.93 5.4 5.4 0 0 1 1.67-1.4 6 6 0 0 1 2.32-.66 5.12 5.12 0 0 1 2.15.17 3.45 3.45 0 0 1 1.4.87 3.8 3.8 0 0 1 .83 1.36 7.43 7.43 0 0 1 .38 1.6q.05.4.07.85t0 1.07q-3.84.5-7.68.77zm2.67-4.5a2.66 2.66 0 0 0-1.7.7 3.25 3.25 0 0 0-.82 1.66q2.4-.16 4.82-.45a3.82 3.82 0 0 0-.2-.85 1.55 1.55 0 0 0-1.1-1 2.8 2.8 0 0 0-1-.05zM120.53 159.94a3.6 3.6 0 0 1-1.3.07 1.64 1.64 0 0 1-.95-.46 2.43 2.43 0 0 1-.56-1.1 6.77 6.77 0 0 1-.18-1.78v-5.64l-1.64.28v-2.2l1.65-.3v-2.47q1.2-.82 2.4-1.66v3.68q1.2-.25 2.42-.53V150q-1.2.28-2.43.53v5.94a3 3 0 0 0 .07.74.78.78 0 0 0 .2.4.46.46 0 0 0 .32.12 1.7 1.7 0 0 0 .4 0 3 3 0 0 0 .65-.24 9.45 9.45 0 0 0 1-.56l.6 1.73a8 8 0 0 1-1.26.84 5.24 5.24 0 0 1-1.37.44z"/></g><path d="M83.9 159.5v-.5a3.35 3.35 0 0 1-1.12.38 3.88 3.88 0 0 1-1.32 0 6.06 6.06 0 0 1-2.14-.82 6.36 6.36 0 0 1-1.7-1.56 7.32 7.32 0 0 1-1.13-2.18 8.55 8.55 0 0 1-.4-2.68 6.26 6.26 0 0 1 .38-2.3 4.1 4.1 0 0 1 1.1-1.62 3.82 3.82 0 0 1 1.72-.84 5.7 5.7 0 0 1 2.25 0 7 7 0 0 1 1.23.33 5.2 5.2 0 0 1 1.1.6V145l-1.47-.24q0-1.22 0-2.43 2 .34 4 .6v14.55l1.6.2V160q-2-.2-4.1-.5zm0-8.75a3.84 3.84 0 0 0-1-.68 5.22 5.22 0 0 0-1.22-.37 2.8 2.8 0 0 0-1.14 0 2.1 2.1 0 0 0-.94.5 2.5 2.5 0 0 0-.64 1 4.06 4.06 0 0 0-.24 1.46 6 6 0 0 0 .23 1.72 4.23 4.23 0 0 0 .63 1.3 3.4 3.4 0 0 0 1 .9 3.47 3.47 0 0 0 1.2.46A2.8 2.8 0 0 0 83 157a2.46 2.46 0 0 0 .86-.44zM97.52 160.65v-.7a5.78 5.78 0 0 1-1.47.62 5.33 5.33 0 0 1-1.65.17 4.62 4.62 0 0 1-1.6-.35 3.36 3.36 0 0 1-1.23-.9 4 4 0 0 1-.77-1.4 6.22 6.22 0 0 1-.27-1.93q0-2.4 0-4.8l-1.44-.14v-2.4q1.87.2 3.76.3l.34.1v6.9a2.46 2.46 0 0 0 .5 1.68 1.9 1.9 0 0 0 1.4.6 3.9 3.9 0 0 0 1.18-.15 4.55 4.55 0 0 0 1.18-.5v-6H96v-2.4q1.88.05 3.77 0l.34.05q0 4.43 0 8.85h1.2q0 1.2 0 2.4-1.9.03-3.78 0zM105.53 155.34a4.05 4.05 0 0 0 .08.6 4.17 4.17 0 0 0 .16.52 2.4 2.4 0 0 0 1.1 1.32 2.92 2.92 0 0 0 1.73.32 5.4 5.4 0 0 0 .77-.13 5.07 5.07 0 0 0 .8-.27 8.2 8.2 0 0 0 .84-.43q.45-.26 1-.62l1.08 1.67a10.82 10.82 0 0 1-2.4 1.57 7.14 7.14 0 0 1-2.3.62 5.26 5.26 0 0 1-2.15-.2 4.08 4.08 0 0 1-1.68-1 5 5 0 0 1-1.1-1.84 7.6 7.6 0 0 1-.4-2.57 7.7 7.7 0 0 1 .33-2.27 5.82 5.82 0 0 1 1-1.93 5.4 5.4 0 0 1 1.67-1.4 6 6 0 0 1 2.33-.66 5.12 5.12 0 0 1 2.15.18 3.45 3.45 0 0 1 1.4.87 3.8 3.8 0 0 1 .83 1.35 7.43 7.43 0 0 1 .38 1.6q.05.4.07.85t0 1.07q-3.83.52-7.67.77zm2.67-4.48a2.66 2.66 0 0 0-1.7.7 3.25 3.25 0 0 0-.82 1.65q2.4-.15 4.82-.44a3.82 3.82 0 0 0-.2-.86 1.55 1.55 0 0 0-1.1-1 2.8 2.8 0 0 0-1-.03zM119.4 158.8a3.6 3.6 0 0 1-1.32.06 1.64 1.64 0 0 1-.94-.47 2.43 2.43 0 0 1-.56-1.1 6.77 6.77 0 0 1-.18-1.8v-5.63l-1.64.28v-2.2l1.65-.3v-2.47q1.2-.82 2.4-1.66v3.68q1.22-.25 2.43-.53v2.2q-1.2.3-2.43.54v5.95a3 3 0 0 0 .07.74.78.78 0 0 0 .2.37.46.46 0 0 0 .3.13 1.7 1.7 0 0 0 .4 0 3 3 0 0 0 .66-.24 9.45 9.45 0 0 0 1-.56l.6 1.73a8 8 0 0 1-1.26.84 5.24 5.24 0 0 1-1.38.42z" class="cls-5"/><text class="cls-6" transform="translate(59.23 116.71)">ID</text><text class="cls-7" transform="translate(58.09 115.57)">ID</text></svg>