<svg id="Слой_1" data-name="Слой 1" xmlns="http://www.w3.org/2000/svg" viewBox="0 0 900 605"><defs><style>.cls-1,.cls-2,.cls-4,.cls-7,.cls-8{fill:#fff;}.cls-2{fill-opacity:0.64;}.cls-3,.cls-9{fill:none;stroke-width:2px;}.cls-3,.cls-4,.cls-5{stroke:#000;}.cls-3,.cls-4,.cls-5,.cls-6,.cls-9{stroke-miterlimit:10;}.cls-4,.cls-5{stroke-width:3px;}.cls-6,.cls-9{stroke:#fff;}.cls-6{stroke-width:5px;}.cls-7{font-size:253.28px;font-family:Perla, Perla;letter-spacing:0.1em;}.cls-8{font-size:51.3px;font-family:Roboto-Regular, Roboto;letter-spacing:0.31em;}</style></defs><title>logo</title><circle cx="599.5" cy="302.89" r="299.5"/><path d="M599.5,582.68A279.79,279.79,0,0,1,401.65,105,279.79,279.79,0,1,1,797.34,500.73,278,278,0,0,1,599.5,582.68Z"/><path class="cls-1" d="M599.5,25.6A277.37,277.37,0,0,1,707.43,558.39a277.36,277.36,0,0,1-215.87-511A275.55,275.55,0,0,1,599.5,25.6m0-5C443.59,20.6,317.21,147,317.21,302.89S443.59,585.18,599.5,585.18,881.79,458.79,881.79,302.89,755.4,20.6,599.5,20.6Z"/><path class="cls-1" d="M599.5,25.6A277.37,277.37,0,0,1,707.43,558.39a277.36,277.36,0,0,1-215.87-511A275.55,275.55,0,0,1,599.5,25.6m0-5C443.59,20.6,317.21,147,317.21,302.89S443.59,585.18,599.5,585.18,881.79,458.79,881.79,302.89,755.4,20.6,599.5,20.6Z"/><path class="cls-2" d="M878.28,247.85,601.13,301.78,746.73,59.9a354.31,354.31,0,0,1,131.55,188Z"/><path class="cls-2" d="M324.17,366.52l275.24-63L461.79,550.08A354.31,354.31,0,0,1,324.17,366.52Z"/><circle class="cls-3" cx="599.5" cy="302.89" r="141.15"/><circle class="cls-4" cx="599.5" cy="302.89" r="66.79"/><circle class="cls-5" cx="600.87" cy="304.27" r="3.44"/><circle class="cls-3" cx="599.5" cy="302.89" r="92.09"/><circle class="cls-3" cx="599.5" cy="302.89" r="214.95"/><circle class="cls-3" cx="599.5" cy="302.89" r="78.79"/><circle class="cls-3" cx="599.5" cy="302.89" r="243.11"/><rect class="cls-6" x="2.21" y="2.38" width="600.01" height="600.01"/><text class="cls-7" transform="translate(135.93 366.95)">ID</text><text class="cls-8" transform="translate(201.85 457.01)">duet</text><line class="cls-9" x1="135.93" y1="406.49" x2="427.52" y2="406.49"/></svg>